<svg id="download-apple-store" xmlns="http://www.w3.org/2000/svg" xmlns:xlink="http://www.w3.org/1999/xlink" width="100" height="29.63" viewBox="0 0 100 29.63">
  <defs>
    <linearGradient id="linear-gradient" x1="-1.199" y1="2.436" x2="-1.199" y2="1.535" gradientUnits="objectBoundingBox">
      <stop offset="0" stop-color="#1a1a1a" stop-opacity="0.102"/>
      <stop offset="0.123" stop-color="#212121" stop-opacity="0.153"/>
      <stop offset="0.308" stop-color="#353535" stop-opacity="0.227"/>
      <stop offset="0.532" stop-color="#575757" stop-opacity="0.318"/>
      <stop offset="0.783" stop-color="#858585" stop-opacity="0.42"/>
      <stop offset="1" stop-color="#b3b3b3" stop-opacity="0.51"/>
    </linearGradient>
  </defs>
  <path id="Path_3125" data-name="Path 3125" d="M102.239,29.033A2.838,2.838,0,0,1,99.4,31.871H6.407a2.842,2.842,0,0,1-2.845-2.838V6.4A2.846,2.846,0,0,1,6.407,3.561H99.4A2.841,2.841,0,0,1,102.238,6.4V29.033Z" transform="translate(-2.902 -2.902)" fill="#fff"/>
  <path id="Path_3126" data-name="Path 3126" d="M96.5,29.63H3.5a3.5,3.5,0,0,1-3.5-3.5V3.5A3.507,3.507,0,0,1,3.5,0h92.99A3.509,3.509,0,0,1,100,3.5v22.63a3.5,3.5,0,0,1-3.5,3.5Z" fill="#a6a6a6"/>
  <path id="Path_3127" data-name="Path 3127" d="M102.239,29.033A2.838,2.838,0,0,1,99.4,31.871H6.407a2.842,2.842,0,0,1-2.845-2.838V6.4A2.846,2.846,0,0,1,6.407,3.561H99.4A2.841,2.841,0,0,1,102.238,6.4V29.033Z" transform="translate(-2.902 -2.902)"/>
  <path id="Path_3128" data-name="Path 3128" d="M64.044,34.927a4.3,4.3,0,0,1,2.046-3.6,4.4,4.4,0,0,0-3.466-1.873c-1.458-.153-2.872.872-3.615.872s-1.9-.857-3.134-.832a4.614,4.614,0,0,0-3.884,2.368c-1.679,2.907-.427,7.178,1.182,9.528.8,1.151,1.745,2.435,2.976,2.39,1.2-.049,1.654-.767,3.108-.767s1.862.767,3.118.738c1.293-.02,2.106-1.156,2.883-2.317a9.5,9.5,0,0,0,1.318-2.684,4.156,4.156,0,0,1-2.535-3.819ZM61.672,27.9a4.227,4.227,0,0,0,.968-3.03,4.308,4.308,0,0,0-2.785,1.44,4.023,4.023,0,0,0-.993,2.918,3.558,3.558,0,0,0,2.81-1.329Z" transform="translate(-41.715 -20.268)" fill="#fff"/>
  <path id="Path_3129" data-name="Path 3129" d="M301.916,0H252.108l19.509,29.63h30.3a3.507,3.507,0,0,0,3.5-3.5V3.5a3.508,3.508,0,0,0-3.5-3.5Z" transform="translate(-205.421)" fill="url(#linear-gradient)"/>
  <g id="Group_1801" data-name="Group 1801" transform="translate(31.447 13.336)">
    <path id="Path_3130" data-name="Path 3130" d="M178.138,82.022h-1.683l-.922-2.9h-3.2l-.878,2.9h-1.639l3.176-9.86h1.961Zm-2.883-4.112-.834-2.575q-.132-.395-.5-1.858h-.03q-.147.629-.468,1.858l-.82,2.575Zm11.034.469a4.026,4.026,0,0,1-.986,2.867,2.89,2.89,0,0,1-2.192.937,2.195,2.195,0,0,1-2.031-1.008v3.731H179.5V77.249q0-1.139-.059-2.337h1.39l.088,1.127h.03a2.811,2.811,0,0,1,4.5-.279A3.931,3.931,0,0,1,186.289,78.38Zm-1.61.058a2.931,2.931,0,0,0-.468-1.712,1.619,1.619,0,0,0-1.376-.7,1.643,1.643,0,0,0-1.061.388,1.8,1.8,0,0,0-.622,1.017,2.062,2.062,0,0,0-.073.481V79.1a1.9,1.9,0,0,0,.476,1.31,1.58,1.58,0,0,0,1.236.534,1.62,1.62,0,0,0,1.39-.688A3.026,3.026,0,0,0,184.68,78.438Zm9.79-.058a4.026,4.026,0,0,1-.986,2.867,2.892,2.892,0,0,1-2.193.937,2.195,2.195,0,0,1-2.031-1.008v3.731h-1.58V77.249q0-1.139-.059-2.337h1.39l.088,1.127h.03a2.812,2.812,0,0,1,4.5-.279A3.935,3.935,0,0,1,194.469,78.38Zm-1.61.058a2.931,2.931,0,0,0-.469-1.712,1.616,1.616,0,0,0-1.374-.7,1.65,1.65,0,0,0-1.062.388,1.8,1.8,0,0,0-.621,1.017,2.11,2.11,0,0,0-.074.481V79.1a1.908,1.908,0,0,0,.475,1.31,1.583,1.583,0,0,0,1.238.534,1.618,1.618,0,0,0,1.39-.688A3.026,3.026,0,0,0,192.859,78.438Zm10.756.819a2.634,2.634,0,0,1-.877,2.049,3.887,3.887,0,0,1-2.687.863,4.691,4.691,0,0,1-2.554-.614l.365-1.317a4.4,4.4,0,0,0,2.283.615,2.154,2.154,0,0,0,1.39-.4,1.314,1.314,0,0,0,.5-1.074,1.377,1.377,0,0,0-.411-1.01,3.807,3.807,0,0,0-1.361-.76q-2.59-.966-2.591-2.824a2.494,2.494,0,0,1,.915-1.989,3.617,3.617,0,0,1,2.422-.776,4.787,4.787,0,0,1,2.239.468l-.4,1.288a3.916,3.916,0,0,0-1.9-.453,1.928,1.928,0,0,0-1.307.41,1.172,1.172,0,0,0-.4.894,1.208,1.208,0,0,0,.454.965,5.119,5.119,0,0,0,1.433.76,4.86,4.86,0,0,1,1.873,1.2,2.5,2.5,0,0,1,.6,1.71Zm5.238-3.159h-1.742V79.55q0,1.317.922,1.316a2.777,2.777,0,0,0,.7-.073l.044,1.2a3.581,3.581,0,0,1-1.229.175,1.894,1.894,0,0,1-1.464-.571,2.8,2.8,0,0,1-.527-1.917V76.095h-1.038V74.909h1.038v-1.3l1.552-.468v1.77h1.742Zm7.843,2.311a3.9,3.9,0,0,1-.937,2.692,3.34,3.34,0,0,1-2.6,1.083,3.184,3.184,0,0,1-2.5-1.037,3.781,3.781,0,0,1-.929-2.618,3.868,3.868,0,0,1,.958-2.706,3.322,3.322,0,0,1,2.584-1.054,3.25,3.25,0,0,1,2.516,1.039,3.732,3.732,0,0,1,.908,2.6Zm-1.638.036a3.183,3.183,0,0,0-.423-1.678,1.564,1.564,0,0,0-1.42-.847,1.587,1.587,0,0,0-1.449.847,3.236,3.236,0,0,0-.424,1.707,3.174,3.174,0,0,0,.424,1.678,1.621,1.621,0,0,0,2.856-.014A3.2,3.2,0,0,0,215.058,78.445Zm6.776-2.144a2.75,2.75,0,0,0-.5-.044,1.491,1.491,0,0,0-1.288.63,2.372,2.372,0,0,0-.394,1.4v3.731h-1.58V77.151q0-1.12-.046-2.238H219.4l.058,1.36h.044a2.439,2.439,0,0,1,.79-1.127,1.911,1.911,0,0,1,1.142-.381,2.537,2.537,0,0,1,.4.029V76.3Zm7.067,1.829a3.7,3.7,0,0,1-.058.716H224.1a2.062,2.062,0,0,0,.688,1.611,2.352,2.352,0,0,0,1.55.5,5.244,5.244,0,0,0,1.918-.336l.248,1.1a5.931,5.931,0,0,1-2.384.439,3.457,3.457,0,0,1-2.6-.972,3.594,3.594,0,0,1-.943-2.611,4.072,4.072,0,0,1,.879-2.676,3.029,3.029,0,0,1,2.487-1.14,2.651,2.651,0,0,1,2.328,1.14A3.837,3.837,0,0,1,228.9,78.131Zm-1.507-.41a2.138,2.138,0,0,0-.307-1.214,1.38,1.38,0,0,0-1.258-.659,1.5,1.5,0,0,0-1.258.644,2.359,2.359,0,0,0-.468,1.228h3.291Z" transform="translate(-169.812 -72.016)" fill="#fff"/>
  </g>
  <g id="Group_1802" data-name="Group 1802" transform="translate(32.372 4.855)">
    <path id="Path_3131" data-name="Path 3131" d="M175.942,31.36a10.092,10.092,0,0,1-1.136-.058V26.535a8.6,8.6,0,0,1,1.338-.1c1.812,0,2.647.891,2.647,2.344C178.791,30.454,177.8,31.36,175.942,31.36Zm.265-4.315a3.171,3.171,0,0,0-.626.05V30.72a4.1,4.1,0,0,0,.525.021A1.717,1.717,0,0,0,177.97,28.8,1.581,1.581,0,0,0,176.208,27.045Zm5.184,4.351a1.663,1.663,0,0,1-1.683-1.8,1.7,1.7,0,0,1,1.741-1.848,1.65,1.65,0,0,1,1.683,1.791A1.712,1.712,0,0,1,181.391,31.4Zm.03-3.078c-.561,0-.921.525-.921,1.258s.367,1.244.913,1.244.913-.561.913-1.259S181.967,28.318,181.421,28.318Zm7.535-.5-1.093,3.494h-.712L186.7,29.8a11.5,11.5,0,0,1-.281-1.128H186.4a7.562,7.562,0,0,1-.28,1.128l-.482,1.517h-.72l-1.029-3.494h.8l.4,1.661q.14.593.237,1.122h.015c.057-.294.15-.662.288-1.114l.5-1.668h.633l.475,1.632c.115.4.208.784.281,1.151h.021a10.056,10.056,0,0,1,.237-1.151l.425-1.632h.763Zm4.024,3.494H192.2V29.31c0-.618-.237-.928-.7-.928a.807.807,0,0,0-.777.856v2.078h-.777v-2.5c0-.309-.007-.64-.029-1h.683l.036.539h.021a1.256,1.256,0,0,1,1.108-.611c.734,0,1.215.561,1.215,1.474Zm2.142,0h-.777v-5.1h.777Zm2.832.079a1.664,1.664,0,0,1-1.683-1.8,1.7,1.7,0,0,1,1.74-1.848,1.65,1.65,0,0,1,1.683,1.791A1.712,1.712,0,0,1,197.954,31.4Zm.029-3.078c-.561,0-.92.525-.92,1.258s.368,1.244.912,1.244.913-.561.913-1.259-.358-1.243-.9-1.243Zm4.774,3-.056-.4h-.021a1.193,1.193,0,0,1-1.022.482,1.016,1.016,0,0,1-1.071-1.028c0-.862.748-1.309,2.043-1.309v-.064c0-.46-.244-.691-.726-.691a1.636,1.636,0,0,0-.913.259l-.158-.511a2.234,2.234,0,0,1,1.2-.3c.913,0,1.374.482,1.374,1.446v1.287a5.279,5.279,0,0,0,.05.834h-.7Zm-.107-1.74c-.863,0-1.3.209-1.3.7a.5.5,0,0,0,.533.546.744.744,0,0,0,.763-.711Zm4.528,1.74-.036-.561h-.021A1.172,1.172,0,0,1,206,31.4a1.593,1.593,0,0,1-1.467-1.783,1.658,1.658,0,0,1,1.53-1.863,1.05,1.05,0,0,1,.986.475h.016V26.219h.777v4.156c0,.338.008.654.029.942Zm-.115-2.056a.845.845,0,0,0-.818-.906c-.576,0-.928.511-.928,1.229s.365,1.187.912,1.187a.872.872,0,0,0,.834-.928Zm5.707,2.135a1.663,1.663,0,0,1-1.682-1.8,1.7,1.7,0,0,1,1.74-1.848,1.65,1.65,0,0,1,1.683,1.791A1.711,1.711,0,0,1,212.771,31.4Zm.029-3.078c-.56,0-.92.525-.92,1.258s.367,1.244.912,1.244.913-.561.913-1.259-.358-1.243-.906-1.243Zm5.889,3h-.777V29.31c0-.618-.237-.928-.7-.928a.806.806,0,0,0-.776.856v2.078h-.777v-2.5c0-.309-.007-.64-.029-1h.683l.036.539h.021a1.255,1.255,0,0,1,1.107-.611c.734,0,1.216.561,1.216,1.474Zm5.226-2.912h-.855v1.7c0,.432.15.648.452.648a1.53,1.53,0,0,0,.345-.036l.021.59a1.721,1.721,0,0,1-.6.087c-.612,0-.978-.338-.978-1.223V28.4h-.51v-.582h.51v-.64l.763-.23v.87h.855Zm4.112,2.912h-.776V29.325c0-.625-.236-.942-.7-.942a.762.762,0,0,0-.777.827v2.107h-.776v-5.1h.776v2.1h.016a1.178,1.178,0,0,1,1.051-.568c.74,0,1.192.575,1.192,1.489Zm4.213-1.56h-2.331a1,1,0,0,0,1.1,1.035,2.625,2.625,0,0,0,.942-.165l.121.539a2.918,2.918,0,0,1-1.172.216,1.622,1.622,0,0,1-1.74-1.761,1.707,1.707,0,0,1,1.653-1.877,1.468,1.468,0,0,1,1.453,1.661,1.5,1.5,0,0,1-.027.352Zm-.712-.553c0-.539-.272-.92-.769-.92a.921.921,0,0,0-.849.92Z" transform="translate(-174.806 -26.219)" fill="#fff"/>
  </g>
</svg>
