<svg xmlns="http://www.w3.org/2000/svg" xmlns:xlink="http://www.w3.org/1999/xlink" width="20" height="20" viewBox="0 0 20 20">
  <defs>
    <clipPath id="clip-path">
      <rect id="Rectangle_1471" data-name="Rectangle 1471" width="20" height="20" transform="translate(41 17)" fill="#ffe000"/>
    </clipPath>
  </defs>
  <g id="barcode_icon" transform="translate(-41 -17)" clip-path="url(#clip-path)">
    <g id="scan" transform="translate(42 -28)">
      <g id="Group_438" data-name="Group 438" transform="translate(0 48)">
        <path id="Path_2774" data-name="Path 2774" d="M3,48H.6a.6.6,0,0,0-.6.6V51a.6.6,0,1,0,1.2,0V49.2H3A.6.6,0,0,0,3,48Z" transform="translate(0 -48)" fill="#ffe000"/>
        <path id="Path_2775" data-name="Path 2775" d="M387,336a.6.6,0,0,0-.6.6v1.8h-1.8a.6.6,0,0,0,0,1.2H387a.6.6,0,0,0,.6-.6v-2.4A.6.6,0,0,0,387,336Z" transform="translate(-369.6 -325.2)" fill="#ffe000"/>
        <path id="Path_2776" data-name="Path 2776" d="M387,48h-2.4a.6.6,0,1,0,0,1.2h1.8V51a.6.6,0,0,0,1.2,0V48.6A.6.6,0,0,0,387,48Z" transform="translate(-369.6 -48)" fill="#ffe000"/>
        <path id="Path_2777" data-name="Path 2777" d="M3,338.4H1.2v-1.8a.6.6,0,0,0-1.2,0V339a.6.6,0,0,0,.6.6H3a.6.6,0,0,0,0-1.2Z" transform="translate(0 -325.2)" fill="#ffe000"/>
      </g>
      <g id="Group_439" data-name="Group 439" transform="translate(2.4 50.4)">
        <rect id="Rectangle_1497" data-name="Rectangle 1497" width="1.2" height="9.6" transform="translate(0 0)" fill="#ffe000"/>
        <rect id="Rectangle_1498" data-name="Rectangle 1498" width="1.2" height="7.2" transform="translate(2.4 0)" fill="#ffe000"/>
        <rect id="Rectangle_1499" data-name="Rectangle 1499" width="1.2" height="7.2" transform="translate(4.8 0)" fill="#ffe000"/>
        <rect id="Rectangle_1500" data-name="Rectangle 1500" width="1.2" height="9.6" transform="translate(7.2 0)" fill="#ffe000"/>
        <rect id="Rectangle_1501" data-name="Rectangle 1501" width="1.2" height="7.2" transform="translate(9.6 0)" fill="#ffe000"/>
        <rect id="Rectangle_1502" data-name="Rectangle 1502" width="1.2" height="9.6" transform="translate(12 0)" fill="#ffe000"/>
        <rect id="Rectangle_1503" data-name="Rectangle 1503" width="1.2" height="1.2" transform="translate(2.4 8.4)" fill="#ffe000"/>
        <rect id="Rectangle_1504" data-name="Rectangle 1504" width="1.2" height="1.2" transform="translate(4.8 8.4)" fill="#ffe000"/>
        <rect id="Rectangle_1505" data-name="Rectangle 1505" width="1.2" height="1.2" transform="translate(9.6 8.4)" fill="#ffe000"/>
      </g>
    </g>
  </g>
</svg>
