<svg id="download-google-play" xmlns="http://www.w3.org/2000/svg" xmlns:xlink="http://www.w3.org/1999/xlink" width="100" height="29.629" viewBox="0 0 100 29.629">
  <defs>
    <linearGradient id="linear-gradient" x1="0.908" y1="1.032" x2="-0.383" y2="0.36" gradientUnits="objectBoundingBox">
      <stop offset="0" stop-color="#00a0ff"/>
      <stop offset="0.007" stop-color="#00a1ff"/>
      <stop offset="0.26" stop-color="#00beff"/>
      <stop offset="0.512" stop-color="#00d2ff"/>
      <stop offset="0.76" stop-color="#00dfff"/>
      <stop offset="1" stop-color="#00e3ff"/>
    </linearGradient>
    <linearGradient id="linear-gradient-2" x1="1.077" y1="0.729" x2="-1.307" y2="0.729" gradientUnits="objectBoundingBox">
      <stop offset="0" stop-color="#ffe000"/>
      <stop offset="0.409" stop-color="#ffbd00"/>
      <stop offset="0.775" stop-color="orange"/>
      <stop offset="1" stop-color="#ff9c00"/>
    </linearGradient>
    <linearGradient id="linear-gradient-3" x1="0.864" y1="-0.023" x2="-0.499" y2="-1.789" gradientUnits="objectBoundingBox">
      <stop offset="0" stop-color="#ff3a44"/>
      <stop offset="1" stop-color="#c31162"/>
    </linearGradient>
    <linearGradient id="linear-gradient-4" x1="-0.186" y1="2.701" x2="0.423" y2="1.909" gradientUnits="objectBoundingBox">
      <stop offset="0" stop-color="#32a071"/>
      <stop offset="0.069" stop-color="#2da771"/>
      <stop offset="0.476" stop-color="#15cf74"/>
      <stop offset="0.801" stop-color="#06e775"/>
      <stop offset="1" stop-color="#00f076"/>
    </linearGradient>
  </defs>
  <path id="Path_3132" data-name="Path 3132" d="M96.3,29.63H3.7a3.668,3.668,0,0,1-3.7-3.7V3.7A3.668,3.668,0,0,1,3.7,0H96.3A3.668,3.668,0,0,1,100,3.7V25.926A3.668,3.668,0,0,1,96.3,29.63Z"/>
  <path id="Path_3133" data-name="Path 3133" d="M96.3.593A3.13,3.13,0,0,1,99.407,3.7V25.926A3.13,3.13,0,0,1,96.3,29.037H3.7A3.13,3.13,0,0,1,.593,25.926V3.7A3.13,3.13,0,0,1,3.7.593H96.3M96.3,0H3.7A3.714,3.714,0,0,0,0,3.7V25.926a3.668,3.668,0,0,0,3.7,3.7H96.3a3.668,3.668,0,0,0,3.7-3.7V3.7A3.714,3.714,0,0,0,96.3,0Z" fill="#a6a6a6"/>
  <path id="Path_3134" data-name="Path 3134" d="M61.1,20.581a3.116,3.116,0,0,0-3.185,3.185A3.162,3.162,0,0,0,61.1,26.952a3.116,3.116,0,0,0,3.185-3.185A3.073,3.073,0,0,0,61.1,20.581Zm0,5.037a1.932,1.932,0,0,1,0-3.852,1.794,1.794,0,0,1,1.778,1.926A1.839,1.839,0,0,1,61.1,25.619Zm-6.889-5.037a3.116,3.116,0,0,0-3.185,3.185,3.162,3.162,0,0,0,3.185,3.185A3.116,3.116,0,0,0,57.4,23.767,3.073,3.073,0,0,0,54.211,20.581Zm0,5.037a1.932,1.932,0,0,1,0-3.852,1.794,1.794,0,0,1,1.778,1.926A1.839,1.839,0,0,1,54.211,25.619Zm-8.222-4.074v1.333h3.185a2.8,2.8,0,0,1-.741,1.7,3.279,3.279,0,0,1-2.444.963,3.449,3.449,0,0,1-3.481-3.556,3.494,3.494,0,0,1,3.481-3.556,3.673,3.673,0,0,1,2.444.963l.963-.963A4.747,4.747,0,0,0,46.063,17.1a4.889,4.889,0,1,0,0,9.778A4.263,4.263,0,0,0,49.47,25.47a4.459,4.459,0,0,0,1.185-3.111,2.778,2.778,0,0,0-.074-.815H45.989Zm33.63,1.037a2.878,2.878,0,0,0-2.667-2,2.983,2.983,0,0,0-2.963,3.185A3.1,3.1,0,0,0,77.1,26.952a3.039,3.039,0,0,0,2.593-1.407L78.656,24.8a1.806,1.806,0,0,1-1.556.889,1.607,1.607,0,0,1-1.556-.963l4.222-1.778-.148-.37Zm-4.3,1.037a1.8,1.8,0,0,1,1.63-1.852,1.31,1.31,0,0,1,1.185.667l-2.815,1.185Zm-3.481,3.037h1.407V17.4H71.841Zm-2.222-5.407a2.439,2.439,0,0,0-1.7-.741,3.183,3.183,0,0,0-3.037,3.185A3.067,3.067,0,0,0,67.915,26.8a2.127,2.127,0,0,0,1.63-.741h.074v.444a1.684,1.684,0,0,1-3.259.741l-1.185.519a3.056,3.056,0,0,0,2.815,1.852c1.63,0,2.963-.963,2.963-3.259V20.73H69.619v.519Zm-1.63,4.37a1.932,1.932,0,0,1,0-3.852,1.782,1.782,0,0,1,1.7,1.926A1.782,1.782,0,0,1,67.989,25.619ZM86.063,17.4H82.73v9.259h1.407V23.174h1.926a2.893,2.893,0,1,0,0-5.778Zm.074,4.444h-2V18.656h2a1.627,1.627,0,0,1,1.63,1.556,1.7,1.7,0,0,1-1.63,1.63Zm8.519-1.333a2.49,2.49,0,0,0-2.444,1.407l1.259.519a1.308,1.308,0,0,1,1.259-.667,1.392,1.392,0,0,1,1.481,1.185v.074a2.938,2.938,0,0,0-1.407-.37c-1.333,0-2.667.741-2.667,2.074a2.17,2.17,0,0,0,2.3,2.074,2.085,2.085,0,0,0,1.778-.889h.074v.741h1.333V23.1a2.8,2.8,0,0,0-2.963-2.593Zm-.148,5.111c-.444,0-1.111-.222-1.111-.815,0-.741.815-.963,1.481-.963a2.865,2.865,0,0,1,1.259.3A1.725,1.725,0,0,1,94.507,25.619Zm7.778-4.889-1.556,4h-.074l-1.63-4H97.544l2.444,5.63L98.581,29.47h1.407l3.778-8.741ZM89.841,26.656h1.407V17.4H89.841Z" transform="translate(-10.656 -4.433)" fill="#fff"/>
  <path id="Path_3135" data-name="Path 3135" d="M10.3,7.5A1.448,1.448,0,0,0,10,8.537v16.37a1.465,1.465,0,0,0,.37,1.037l.074.074,9.185-9.185v-.148Z" transform="translate(-2.593 -1.944)" fill="url(#linear-gradient)"/>
  <path id="Path_3136" data-name="Path 3136" d="M25.937,22.1,22.9,19.059v-.222L25.937,15.8l.074.074,3.63,2.074a1.131,1.131,0,0,1,0,2.148Z" transform="translate(-5.937 -4.096)" fill="url(#linear-gradient-2)"/>
  <path id="Path_3137" data-name="Path 3137" d="M22.77,23.111,19.659,20,10.4,29.259c.37.37.889.37,1.556.074L22.77,23.111" transform="translate(-2.696 -5.185)" fill="url(#linear-gradient-3)"/>
  <path id="Path_3138" data-name="Path 3138" d="M22.77,13.563,11.956,7.415a1.2,1.2,0,0,0-1.556.074l9.259,9.185Z" transform="translate(-2.696 -1.859)" fill="url(#linear-gradient-4)"/>
  <path id="Path_3139" data-name="Path 3139" d="M22.7,24.1,11.956,30.174a1.211,1.211,0,0,1-1.481,0l-.074.074.074.074a1.211,1.211,0,0,0,1.481,0Z" transform="translate(-2.696 -6.248)" opacity="0.2"/>
  <path id="Path_3140" data-name="Path 3140" d="M10.3,29.111a1.448,1.448,0,0,1-.3-1.037v.074a1.465,1.465,0,0,0,.37,1.037v-.074H10.3Zm16-8.148-3.7,2.074.074.074,3.63-2.074A1.231,1.231,0,0,0,27.037,20C27.037,20.37,26.741,20.667,26.3,20.963Z" transform="translate(-2.593 -5.185)" opacity="0.12"/>
  <path id="Path_3141" data-name="Path 3141" d="M11.852,7.483,26.3,15.7c.444.3.741.593.741.963a1.231,1.231,0,0,0-.741-1.037L11.852,7.409C10.815,6.816,10,7.26,10,8.446V8.52C10,7.409,10.815,6.89,11.852,7.483Z" transform="translate(-2.593 -1.853)" fill="#fff" opacity="0.25"/>
  <g id="Group_1803" data-name="Group 1803" transform="translate(30.296 5.111)">
    <path id="Path_3142" data-name="Path 3142" d="M44.826,10.826A2.3,2.3,0,0,1,40.9,9.2a2.3,2.3,0,1,1,4.593,0A2.178,2.178,0,0,1,44.826,10.826Zm-2.815-.37a1.748,1.748,0,0,0,1.185.519,1.474,1.474,0,0,0,1.185-.519A1.787,1.787,0,0,0,44.9,9.2a1.526,1.526,0,0,0-.519-1.259A1.748,1.748,0,0,0,43.2,7.419a1.474,1.474,0,0,0-1.185.519A1.787,1.787,0,0,0,41.493,9.2,1.526,1.526,0,0,0,42.011,10.456Zm4.3.963V6.974h.667l2.148,3.481V6.974h.593v4.444h-.593L46.9,7.789v3.63Zm5.926,0h-.593V7.493H50.381V6.974h3.037v.519H52.159v3.926Zm2,0V6.974h1.333a2.306,2.306,0,0,1,1.63.593,2.122,2.122,0,0,1,.593,1.63,2.441,2.441,0,0,1-.593,1.63,2.122,2.122,0,0,1-1.63.593Zm.519-.519h.815a1.564,1.564,0,0,0,1.185-.444A1.742,1.742,0,0,0,57.2,9.2a1.742,1.742,0,0,0-.444-1.259,1.682,1.682,0,0,0-1.185-.444h-.815ZM61.2,7.493h-2V8.9h1.852v.519H59.2v1.407h2v.593H58.6V6.974H61.2Zm4.222-.519L63.789,8.9l1.778,2.519H64.9L63.419,9.344l-.667.815v1.259h-.593V6.974h.593v2.3l1.926-2.3Zm2.148,4.444V6.974h.593V8.9h2.222V6.974h.593v4.444h-.593v-2H68.159v2ZM74.6,7.493h-2V8.9h1.852v.519H72.6v1.407h2v.593H72.011V6.974H74.6Zm2.37,3.926h-.593V7.493H75.122V6.974h3.037v.519H76.9v3.926Zm7.037-.593A2.3,2.3,0,0,1,80.085,9.2a2.3,2.3,0,1,1,4.593,0A2.178,2.178,0,0,1,84.011,10.826Zm-2.815-.37a1.748,1.748,0,0,0,1.185.519,1.474,1.474,0,0,0,1.185-.519A1.787,1.787,0,0,0,84.085,9.2a1.526,1.526,0,0,0-.519-1.259,1.748,1.748,0,0,0-1.185-.519,1.474,1.474,0,0,0-1.185.519A1.787,1.787,0,0,0,80.678,9.2,1.526,1.526,0,0,0,81.2,10.456Zm4.815.963h-.593V6.974H86.9a1.56,1.56,0,0,1,.963.37,1.194,1.194,0,0,1,.444.963,1.3,1.3,0,0,1-.444.963,1.56,1.56,0,0,1-.963.37h-.963v1.778Zm0-2.37h.963a.841.841,0,0,0,.593-.222.716.716,0,0,0,0-1.037.841.841,0,0,0-.593-.222h-.963Z" transform="translate(-40.9 -6.9)" fill="#fff" stroke="#fff" stroke-miterlimit="10" stroke-width="0.2"/>
  </g>
</svg>
