<svg xmlns="http://www.w3.org/2000/svg" width="11.719" height="15" viewBox="0 0 11.719 15">
  <g id="white_new_user" transform="translate(0 0.001)">
    <path id="Path_3143" data-name="Path 3143" d="M.937,12.187a4.688,4.688,0,0,1,7.9-3.409L9.486,8.1a5.629,5.629,0,0,0-1.87-1.174,3.75,3.75,0,1,0-3.972,0A5.614,5.614,0,0,0,0,12.187V15H6.562v-.937H.937ZM2.812,3.749A2.812,2.812,0,1,1,5.625,6.562,2.815,2.815,0,0,1,2.812,3.749Z" fill="#fff"/>
    <path id="Path_3144" data-name="Path 3144" d="M18.75,21.563H16.875V19.688h-.938v1.875H14.062V22.5h1.875v1.875h.938V22.5H18.75Z" transform="translate(-7.031 -9.845)" fill="#fff"/>
  </g>
</svg>
