<svg xmlns="http://www.w3.org/2000/svg" width="11.575" height="15" viewBox="0 0 11.575 15">
  <g id="white_user" transform="translate(-0.425)">
    <path id="Path_3145" data-name="Path 3145" d="M1.292,12.211A4.748,4.748,0,0,1,9.3,8.758l.6-.632A5.571,5.571,0,0,0,7.948,6.932a3.731,3.731,0,1,0-3.812,0A5.594,5.594,0,0,0,.425,12.21V15H6.983v-.866H1.292Zm1.884-8.48A2.865,2.865,0,1,1,6.041,6.6,2.867,2.867,0,0,1,3.176,3.731Z" fill="#fff"/>
    <path id="Path_3146" data-name="Path 3146" d="M17.639,19.1l-2.992,2.992L13.54,20.981l-.612.613,1.72,1.72,3.6-3.6Z" transform="translate(-6.251 -9.548)" fill="#fff"/>
  </g>
</svg>
