<svg xmlns="http://www.w3.org/2000/svg" width="150" height="50" viewBox="0 0 150 50">
  <g id="logo-white" transform="translate(-8.941 -6)">
    <path id="Path_3047" data-name="Path 3047" d="M145.823,34.376a10.727,10.727,0,0,1,7.913,3.331,11.383,11.383,0,0,1,0,15.96,11.031,11.031,0,0,1-15.8,0,11.395,11.395,0,0,1,0-15.96A10.634,10.634,0,0,1,145.823,34.376Zm0,2.4a8.707,8.707,0,0,0-6.239,2.6,8.918,8.918,0,0,0-2.565,6.314,8.8,8.8,0,0,0,15.034,6.282,8.923,8.923,0,0,0,0-12.59A8.378,8.378,0,0,0,145.823,36.778Z" transform="translate(-95.535 -21.49)" fill="#fff"/>
    <path id="Path_3048" data-name="Path 3048" d="M249.35,34.377a8.225,8.225,0,0,1,6.047,2.6,8.4,8.4,0,0,1,2.534,6.119V56.68h-2.343V43.092a6.324,6.324,0,0,0-3.866-5.837,6.2,6.2,0,0,0-6.809,1.382,6.051,6.051,0,0,0-1.837,4.455V56.68h-2.343V43.092a8.319,8.319,0,0,1,2.5-6.119A8.227,8.227,0,0,1,249.35,34.377Z" transform="translate(-176.126 -21.491)" fill="#fff"/>
    <path id="Path_3049" data-name="Path 3049" d="M331.489,34.376a5.762,5.762,0,0,1,4.342,1.849,5.857,5.857,0,0,1,1.837,4.367v1.538h-2.4V40.592a3.725,3.725,0,0,0-1.091-2.691,3.552,3.552,0,0,0-2.638-1.123,3.677,3.677,0,0,0-2.638,1.089,3.493,3.493,0,0,0-1.125,2.6,3.307,3.307,0,0,0,2.28,3.334L333.9,45.3a5.706,5.706,0,0,1,2.724,2.184,5.973,5.973,0,0,1,1.014,3.382,6.122,6.122,0,0,1-.791,3.045,5.874,5.874,0,0,1-5.328,3.055,6.075,6.075,0,0,1-4.355-1.811,6.223,6.223,0,0,1-1.79-4.407V49.213h2.376v1.538a3.7,3.7,0,0,0,1.108,2.693,3.576,3.576,0,0,0,2.638,1.121,3.677,3.677,0,0,0,2.638-1.089,3.487,3.487,0,0,0,1.125-2.6,3.379,3.379,0,0,0-2.28-3.334l-3.836-1.538a5.849,5.849,0,0,1-3.738-5.534,5.992,5.992,0,0,1,.794-3.045A5.809,5.809,0,0,1,331.489,34.376Z" transform="translate(-240.441 -21.49)" fill="#fff"/>
    <path id="Path_3050" data-name="Path 3050" d="M406.65,36.36V49.724a8.6,8.6,0,1,1-17.2,0V36.36H391.8V49.724a6.256,6.256,0,1,0,12.512,0V36.36Z" transform="translate(-289.129 -22.994)" fill="#fff"/>
    <path id="Path_3051" data-name="Path 3051" d="M478.084,35.191H475.71V6h2.374Z" transform="translate(-354.69 0)" fill="#fff"/>
    <path id="Path_3052" data-name="Path 3052" d="M502.478,6v6.891a.428.428,0,0,0,.118.366.417.417,0,0,0,.362.119h3.515v2.4h-3.527c-.316,0-.48.15-.48.449V29.463a3.331,3.331,0,0,0,3.326,3.326h.664v2.4h-.664a5.591,5.591,0,0,1-4.044-1.656,5.727,5.727,0,0,1-1.658-4.083V6Z" transform="translate(-373.211 0)" fill="#fff"/>
    <path id="Path_3053" data-name="Path 3053" d="M550.783,34.376a10.741,10.741,0,0,1,7.913,3.331,11.389,11.389,0,0,1,0,15.96,11.031,11.031,0,0,1-15.8,0,11.395,11.395,0,0,1,0-15.96,10.634,10.634,0,0,1,7.886-3.331Zm0,2.4a8.706,8.706,0,0,0-6.239,2.6,8.917,8.917,0,0,0-2.565,6.314,8.823,8.823,0,0,0,12.173,8.223,8.942,8.942,0,0,0,5.472-8.223,8.662,8.662,0,0,0-2.6-6.308A8.38,8.38,0,0,0,550.783,36.778Z" transform="translate(-403.236 -21.49)" fill="#fff"/>
    <path id="Path_3054" data-name="Path 3054" d="M42.358,78.381a.245.245,0,0,1-.043.243,7.764,7.764,0,0,0-1.647,4.29.735.735,0,0,1-.074.332.747.747,0,0,1-.295.243,4.361,4.361,0,0,0-2.117,4.258,7.412,7.412,0,0,1,.719-2.669,2.525,2.525,0,0,1,2.2-1.407,2.553,2.553,0,0,1,2,1.5,7.681,7.681,0,0,1,.592,2.562,4.132,4.132,0,0,0-2.52-4.447,7.61,7.61,0,0,1,1.237-4.074,3.725,3.725,0,0,1,1.858-1.6.33.33,0,0,1,.24,0,.363.363,0,0,1,.156.182l3.434,6.67,3.388-5.879c.218-.381.427-1,.938-.675a5.5,5.5,0,0,1,1.2,1.169,7.389,7.389,0,0,1,1.472,3,.4.4,0,0,1,0,.2c-.036.119-.168.172-.281.223a1.777,1.777,0,0,0-.985,2.027,1.747,1.747,0,0,0,3.435-.162A1.773,1.773,0,0,0,56.1,82.445a1.037,1.037,0,0,1-.345-.155.883.883,0,0,1-.216-.463,7.306,7.306,0,0,0-1.662-3.132.244.244,0,0,1-.077-.2c.5-.112,1.774,1.16,2.172,1.509a13.523,13.523,0,0,1,1.976,2.14,11.966,11.966,0,0,1,2.22,5.42,1.784,1.784,0,0,1,0,.667,1.733,1.733,0,0,1-.343.621,13.355,13.355,0,0,1-5.086,3.965,15.419,15.419,0,0,1-6.774,1.388,15.7,15.7,0,0,1-6.807-1.7,11.654,11.654,0,0,1-4.642-3.882c-.674-.886-.278-2.184.022-3.174a12.32,12.32,0,0,1,3.6-5.581c.614-.541,1.36-1.4,2.206-1.507Zm1.2,9.463c-.127.082-.185.116-.24.158a.344.344,0,0,1-.357.066.321.321,0,0,0-.374.112.437.437,0,0,0,.253.735.376.376,0,0,0,.287-.1.368.368,0,0,0,.165-.366.392.392,0,0,1,.2-.466c.024,0,.026-.027.072-.129Zm-4.968.243c-.036.075-.05.119-.074.158a.434.434,0,0,0,.042.446.422.422,0,0,0,.411.166.443.443,0,0,0,.338-.32.371.371,0,0,0-.132-.41,1.348,1.348,0,0,0-.278-.136c-.2.082-.326-.063-.48-.138,0,0-.034.015-.1.046Z" transform="translate(-20.683 -54.241)" fill="#fff"/>
    <path id="Path_3055" data-name="Path 3055" d="M68.533,40.9a5.2,5.2,0,0,1-2.309-.485,5.861,5.861,0,0,1-2.259-1.791,5.642,5.642,0,0,1-1.182-3.013,5.955,5.955,0,0,1,2.611-5.559,5.8,5.8,0,0,1,6.079-.221A5.7,5.7,0,0,1,73.345,31.5a5.863,5.863,0,0,1,1.069,2.727,6.133,6.133,0,0,1-.331,2.912,6.025,6.025,0,0,1-.962,1.667,5.636,5.636,0,0,1-1.782,1.456,5.4,5.4,0,0,1-1.959.611C69.094,40.9,68.806,40.888,68.533,40.9Z" transform="translate(-40.908 -17.474)" fill="#fff"/>
    <path id="Path_3056" data-name="Path 3056" d="M112,100.635a1.207,1.207,0,0,1,1.237-1.2,1.24,1.24,0,0,1,1.182,1.23,1.22,1.22,0,0,1-.364.871,1.191,1.191,0,0,1-.871.342,1.166,1.166,0,0,1-.859-.364A1.2,1.2,0,0,1,112,100.635Z" transform="translate(-78.343 -70.782)" fill="#fff"/>
    <path id="Path_3057" data-name="Path 3057" d="M20.53,41.491a16.945,16.945,0,0,1-9.044-7.623l-.046-.09a22.229,22.229,0,0,1-2.4-7.716A18.3,18.3,0,0,1,15.957,9.723,16.417,16.417,0,0,1,30.3,6.841a16.807,16.807,0,0,1,4.7,2.1c.4.26,4.275,3.018,3.693,3.458a15.955,15.955,0,0,0-24.841,3.416,16.491,16.491,0,0,0,3.357,21.075,16.055,16.055,0,0,0,22.858-2.053.208.208,0,0,1,.175-.092,4.616,4.616,0,0,1-1.108,1.618,16.7,16.7,0,0,1-1.472,1.563,17.269,17.269,0,0,1-3.467,2.509,16.7,16.7,0,0,1-8.2,2.094,16.458,16.458,0,0,1-5.465-1.038ZM19.487,10.019h-.038v.017Zm-7.112,8.4a.047.047,0,0,0,0,.019h.017a.071.071,0,0,0,0-.022Z" transform="translate(0 -0.207)" fill="#fff"/>
    <path id="Path_3058" data-name="Path 3058" d="M444.461,187.894H443.08v-2.1h1.381Z" transform="translate(-329.896 -136.198)" fill="#fff"/>
    <path id="Path_3059" data-name="Path 3059" d="M462.793,141.057a6.234,6.234,0,0,1,4.6,1.941,6.31,6.31,0,0,1,1.894,4.634v6.386h-1.379v-2.067c0-.012-.024-.044-.074-.092a.093.093,0,0,0-.11.036,6.285,6.285,0,0,1-4.93,2.31,6.493,6.493,0,0,1-6-4.062,6.628,6.628,0,0,1,1.415-7.159A6.167,6.167,0,0,1,462.793,141.057Zm0,1.4a5.062,5.062,0,0,0-3.628,1.507,5.185,5.185,0,0,0-1.494,3.669,5.08,5.08,0,0,0,1.491,3.639,4.9,4.9,0,0,0,3.623,1.507,4.767,4.767,0,0,0,3.6-1.507,5.213,5.213,0,0,0,1.112-5.627,5.107,5.107,0,0,0-4.709-3.2Z" transform="translate(-339.934 -102.318)" fill="#fff"/>
    <path id="Path_3060" data-name="Path 3060" d="M524.472,141.057a6.493,6.493,0,0,1,6,4.051,6.628,6.628,0,0,1-1.4,7.156,6.4,6.4,0,0,1-9.512-.369c-.024-.049-.072-.061-.146-.036a.154.154,0,0,0-.055.092v6.367H518V147.536a6.51,6.51,0,0,1,6.474-6.478Zm0,1.4a5.062,5.062,0,0,0-3.623,1.509,5.185,5.185,0,0,0-1.492,3.666,5.144,5.144,0,0,0,7.678,4.495,5.2,5.2,0,0,0,2.4-5.834A5.127,5.127,0,0,0,524.472,142.453Z" transform="translate(-386.788 -102.318)" fill="#fff"/>
    <path id="Path_3061" data-name="Path 3061" d="M586.045,141.057a6.493,6.493,0,0,1,6,4.051,6.628,6.628,0,0,1-1.4,7.156,6.4,6.4,0,0,1-9.512-.369c-.024-.049-.072-.061-.146-.036a.143.143,0,0,0-.055.092v6.367h-1.362V147.535a6.506,6.506,0,0,1,6.476-6.478Zm0,1.4a5.058,5.058,0,0,0-3.624,1.508,5.181,5.181,0,0,0-1.49,3.667,5.256,5.256,0,0,0,6.477,5.086,5.15,5.15,0,0,0,3.674-3.707,5.221,5.221,0,0,0-1.414-5.052A4.858,4.858,0,0,0,586.045,142.452Z" transform="translate(-433.595 -102.318)" fill="#fff"/>
  </g>
</svg>
